<?xml version="1.0" encoding="UTF-8"?>
<svg id="_레이어_2" data-name="레이어_2" xmlns="http://www.w3.org/2000/svg" viewBox="0 0 19.61 19.61">
  <defs>
    <style>
      .cls-1 {
        fill: #fff;
      }
    </style>
  </defs>
  <g id="_레이어_1-2" data-name="레이어_1">
    <path class="cls-1" d="M19.32,17.9l-3.1-3.1c1.3-1.61,2-3.6,2-5.69,0-2.43-.95-4.72-2.67-6.44C12-.89,6.22-.89,2.67,2.66.95,4.39,0,6.67,0,9.11s.95,4.72,2.67,6.44c1.72,1.72,4.01,2.67,6.44,2.67,2.1,0,4.08-.71,5.69-2l3.1,3.1c.2.2.45.29.71.29s.51-.1.71-.29c.39-.39.39-1.02,0-1.41ZM4.08,14.14c-1.34-1.34-2.08-3.13-2.08-5.03s.74-3.68,2.08-5.03c1.39-1.39,3.21-2.08,5.03-2.08s3.64.69,5.03,2.08c1.34,1.34,2.08,3.13,2.08,5.03s-.74,3.69-2.08,5.03c-1.34,1.34-3.13,2.08-5.03,2.08s-3.69-.74-5.03-2.08Z"/>
  </g>
</svg>