<?xml version="1.0" encoding="UTF-8"?>
<svg id="_레이어_2" data-name="레이어_2" xmlns="http://www.w3.org/2000/svg" viewBox="0 0 17.29 20">
  <defs>
    <style>
      .cls-1 {
        fill: #fff;
      }
    </style>
  </defs>
  <g id="_레이어_1-2" data-name="레이어_1">
    <path class="cls-1" d="M16.79,20h-5.43c-.28,0-.5-.22-.5-.5v-6.33c0-1.22-.99-2.21-2.21-2.21s-2.21.99-2.21,2.21v6.33c0,.28-.22.5-.5.5H.5c-.28,0-.5-.22-.5-.5v-10.86C0,3.88,3.88,0,8.64,0s8.64,3.88,8.64,8.64v10.86c0,.28-.22.5-.5.5ZM11.86,19h4.43v-10.36c0-4.21-3.43-7.64-7.64-7.64S1,4.43,1,8.64v10.36h4.43v-5.83c0-1.77,1.44-3.21,3.21-3.21s3.21,1.44,3.21,3.21v5.83Z"/>
  </g>
</svg>