<?xml version="1.0" encoding="UTF-8"?>
<svg id="_레이어_2" data-name="레이어_2" xmlns="http://www.w3.org/2000/svg" viewBox="0 0 19.66 17.3">
 
  <g id="_레이어_1-2" data-name="레이어_1">
    <path d="M9.83,17.3c-.13,0-.25-.05-.35-.15L1.5,9.23s-.05-.05-.07-.08C.29,7.89-.21,6.21.08,4.51.45,2.32,2.24.5,4.42.1c2.1-.39,4.18.44,5.41,2.09C11.07.54,13.15-.3,15.24.1c2.18.4,3.96,2.22,4.34,4.41h0c.29,1.7-.21,3.38-1.36,4.63-.02.03-.04.06-.07.08l-7.97,7.93c-.1.1-.23.15-.35.15ZM2.27,8.58l7.56,7.51,7.56-7.51s.03-.04.05-.06c.98-1.03,1.4-2.43,1.16-3.85-.3-1.79-1.76-3.27-3.53-3.6-1.94-.36-3.87.55-4.79,2.27-.17.32-.71.32-.88,0-.92-1.72-2.85-2.62-4.79-2.27-1.78.33-3.23,1.81-3.53,3.6-.24,1.41.18,2.82,1.16,3.85.02.02.03.04.05.06Z"/>
  </g>
</svg>