<?xml version="1.0" encoding="UTF-8"?>
<svg id="_레이어_2" data-name="레이어_2" xmlns="http://www.w3.org/2000/svg" viewBox="0 0 14.32 14.31">
  <g id="_레이어_1-2" data-name="레이어_1">
    <path d="M13.02,13.93c.1-.05.19-.1.27-.17.12-.08.23-.18.34-.28.3-.3.51-.67.65-1.08,0,0,.15-.61-.26-1.45h0c-.27-.59-.75-1.18-1.39-1.67-1.45-1.09-3.19-1.23-3.89-.29-.07.1-.13.2-.17.31-.09.07-.18.16-.25.25-.25.33-.33.74-.27,1.18-.83-.56-1.66-1.23-2.44-2.02s-1.46-1.61-2.01-2.44c.45.05.86-.03,1.18-.27.1-.07.18-.16.25-.25.11-.05.21-.1.31-.17.93-.7.8-2.45-.29-3.89-.49-.65-1.09-1.13-1.69-1.39h.01C2.52-.12,1.92.03,1.92.03h0s0,0,0,0c-.42.14-.78.35-1.08.65-1.86,1.86-.5,6.23,3.04,9.77,3.19,3.19,7.07,4.61,9.16,3.49Z"/>
  </g>
</svg>