<?xml version="1.0" encoding="UTF-8"?>
<svg id="_레이어_2" data-name="레이어_2" xmlns="http://www.w3.org/2000/svg" viewBox="0 0 21 21">
  <defs>
    <style>
      .cls-1 {
        fill: #fff;
      }
    </style>
  </defs>
  <g id="_레이어_1-2" data-name="레이어_1">
    <g>
      <path class="cls-1" d="M16.5,10h-5.5v-5.5c0-.28-.22-.5-.5-.5s-.5.22-.5.5v5.5h-5.5c-.28,0-.5.22-.5.5s.22.5.5.5h5.5v5.5c0,.28.22.5.5.5s.5-.22.5-.5v-5.5h5.5c.28,0,.5-.22.5-.5s-.22-.5-.5-.5Z"/>
      <path class="cls-1" d="M16.5,0H4.5C2.02,0,0,2.02,0,4.5v12c0,2.48,2.02,4.5,4.5,4.5h12c2.48,0,4.5-2.02,4.5-4.5V4.5c0-2.48-2.02-4.5-4.5-4.5ZM20,16.5c0,1.93-1.57,3.5-3.5,3.5H4.5c-1.93,0-3.5-1.57-3.5-3.5V4.5c0-1.93,1.57-3.5,3.5-3.5h12c1.93,0,3.5,1.57,3.5,3.5v12Z"/>
    </g>
  </g>
</svg>