<?xml version="1.0" encoding="UTF-8"?>
<svg id="_레이어_2" data-name="레이어_2" xmlns="http://www.w3.org/2000/svg" viewBox="0 0 22 22">
  
  <g id="_레이어_1-2" data-name="레이어_1">
    <g>
      <path d="M17,10h-5v-5c0-.55-.45-1-1-1s-1,.45-1,1v5h-5c-.55,0-1,.45-1,1s.45,1,1,1h5v5c0,.55.45,1,1,1s1-.45,1-1v-5h5c.55,0,1-.45,1-1s-.45-1-1-1Z"/>
      <path d="M17,0H5C2.24,0,0,2.24,0,5v12c0,2.76,2.24,5,5,5h12c2.76,0,5-2.24,5-5V5c0-2.76-2.24-5-5-5ZM20,17c0,1.65-1.35,3-3,3H5c-1.65,0-3-1.35-3-3V5c0-1.65,1.35-3,3-3h12c1.65,0,3,1.35,3,3v12Z"/>
    </g>
  </g>
</svg>