<?xml version="1.0" encoding="UTF-8"?>
<svg id="_레이어_2" data-name="레이어_2" xmlns="http://www.w3.org/2000/svg" viewBox="0 0 18.61 18.61">
 
  <g id="_레이어_1-2" data-name="레이어_1">
    <path d="M18.47,17.76l-3.43-3.43c1.41-1.58,2.19-3.59,2.19-5.72,0-2.3-.9-4.46-2.52-6.09-1.63-1.63-3.79-2.52-6.09-2.52S4.15.9,2.52,2.52C.9,4.15,0,6.31,0,8.61s.9,4.46,2.52,6.09c1.68,1.68,3.88,2.52,6.09,2.52,2.05,0,4.09-.73,5.72-2.18l3.43,3.43c.1.1.23.15.35.15s.26-.05.35-.15c.2-.2.2-.51,0-.71ZM3.23,13.99c-1.44-1.44-2.23-3.35-2.23-5.38s.79-3.94,2.23-5.38,3.35-2.23,5.38-2.23,3.94.79,5.38,2.23,2.23,3.35,2.23,5.38-.79,3.94-2.23,5.38c-2.97,2.97-7.8,2.97-10.76,0Z"/>
  </g>
</svg>