<?xml version="1.0" encoding="UTF-8"?>
<svg id="_레이어_2" data-name="레이어_2" xmlns="http://www.w3.org/2000/svg" viewBox="0 0 21.33 23.04">
 
  <g id="_레이어_1-2" data-name="레이어_1">
    <path d="M11.55,23.04h-1.77c-.89,0-1.65-.64-1.8-1.52l-.3-1.76c-.96-.35-1.85-.86-2.64-1.53l-1.68.62c-.84.31-1.77-.03-2.22-.8l-.88-1.53c-.45-.78-.27-1.75.42-2.32l1.37-1.14c-.09-.51-.14-1.02-.14-1.53s.05-1.02.14-1.53l-1.37-1.14C-.03,8.28-.2,7.3.25,6.53l.88-1.53c.45-.78,1.38-1.12,2.22-.8l1.68.62c.79-.67,1.68-1.18,2.64-1.53l.3-1.76c.15-.88.91-1.52,1.8-1.52h1.77c.89,0,1.65.64,1.8,1.52l.3,1.76c.96.35,1.85.86,2.64,1.53l1.68-.62c.84-.31,1.77.03,2.22.8l.88,1.53c.45.78.27,1.75-.42,2.32l-1.37,1.14c.09.51.14,1.02.14,1.53s-.05,1.02-.14,1.53l1.37,1.14c.69.57.86,1.55.42,2.32l-.88,1.53c-.45.77-1.38,1.11-2.22.8l-1.68-.62c-.79.67-1.68,1.18-2.64,1.53l-.3,1.76c-.15.88-.91,1.52-1.8,1.52ZM5.21,17.09l.3.22c.8.72,1.72,1.25,2.72,1.58l.28.09.1.35.35,2.01c.07.4.41.69.82.69h1.77c.41,0,.75-.29.82-.69l.4-2.31.33-.15c1-.33,1.92-.86,2.73-1.58l.23-.2.36.09,1.92.71c.38.14.8-.01,1.01-.36l.88-1.53c.2-.35.12-.79-.19-1.05h0l-1.8-1.5.04-.37c.11-.52.16-1.05.16-1.58s-.06-1.05-.16-1.58l-.06-.3.26-.26,1.56-1.3c.31-.26.39-.7.19-1.05l-.88-1.53c-.2-.35-.62-.5-1.01-.36l-2.2.81-.3-.21c-.81-.72-1.72-1.25-2.73-1.58l-.28-.09-.1-.35-.35-2.01c-.07-.4-.41-.69-.82-.69h-1.77c-.41,0-.75.29-.82.69l-.4,2.31-.33.15c-1,.33-1.92.86-2.73,1.58l-.23.2-.36-.09-1.92-.71c-.38-.14-.8.01-1.01.36l-.88,1.53c-.2.35-.12.79.19,1.05l1.8,1.5-.04.37c-.11.52-.16,1.05-.16,1.57s.05,1.06.16,1.58l.06.3-.26.26-1.56,1.3c-.31.26-.39.7-.19,1.05l.88,1.53c.2.35.63.51,1.01.36l2.2-.81ZM10.66,16.1c-2.53,0-4.58-2.06-4.58-4.58s2.06-4.58,4.58-4.58,4.58,2.06,4.58,4.58-2.06,4.58-4.58,4.58ZM10.66,7.93c-1.98,0-3.58,1.61-3.58,3.58s1.61,3.58,3.58,3.58,3.58-1.61,3.58-3.58-1.61-3.58-3.58-3.58Z"/>
  </g>
</svg>