<?xml version="1.0" encoding="UTF-8"?>
<svg id="_레이어_2" data-name="레이어_2" xmlns="http://www.w3.org/2000/svg" viewBox="0 0 23 20.28">
 
  <g id="_레이어_1-2" data-name="레이어_1">
    <g>
      <path  d="M8.73,2.7c0-.17-.02-.34-.05-.5h0c-.02-.1-.05-.2-.08-.3-.02-.06-.03-.12-.06-.18-.03-.09-.08-.17-.12-.26-.03-.06-.06-.13-.1-.19-.05-.07-.1-.14-.15-.21-.05-.06-.09-.12-.15-.18-.06-.06-.11-.12-.17-.17-.06-.06-.13-.11-.2-.16-.06-.05-.12-.09-.19-.13-.08-.05-.16-.09-.25-.13-.06-.03-.12-.06-.19-.09-.1-.04-.21-.07-.31-.1-.06-.01-.11-.04-.17-.05-.17-.03-.34-.05-.51-.05s-.35.02-.51.05c-.06.01-.11.03-.17.05-.11.03-.21.06-.31.1-.07.03-.13.06-.19.09-.08.04-.17.08-.25.13-.06.04-.13.09-.19.13-.07.05-.13.1-.2.16-.06.06-.12.11-.17.17-.05.06-.1.12-.15.18-.05.07-.11.14-.15.21-.04.06-.07.12-.1.19-.04.08-.09.17-.12.26-.02.06-.04.12-.06.18-.03.1-.06.2-.08.3h0c-.03.16-.05.33-.05.5s.02.34.05.5h0c.02.1.05.2.08.3.02.06.03.12.06.18.03.09.08.17.12.26.03.06.06.13.1.19.05.07.1.14.15.21.05.06.09.12.15.18.06.06.11.12.17.17.06.06.13.11.19.16.06.05.12.09.19.13.08.05.16.09.25.13.06.03.12.06.19.09.1.04.21.07.31.1.06.01.11.04.17.05.17.03.34.05.51.05s.35-.02.51-.05c.06-.01.11-.03.17-.05.11-.03.21-.06.31-.1.07-.03.13-.06.19-.09.08-.04.17-.08.25-.13.06-.04.13-.09.19-.13.07-.05.13-.1.19-.16.06-.06.12-.11.17-.17.05-.06.1-.12.15-.18.05-.07.11-.14.15-.21.04-.06.07-.12.1-.19.04-.08.09-.17.12-.26.02-.06.04-.12.06-.18.03-.1.06-.2.08-.3h0c.03-.16.05-.33.05-.5ZM7.73,2.7c0,.18-.03.34-.08.5h0c-.11.34-.31.63-.59.84,0,0-.01.01-.02.02-.13.1-.27.17-.43.23-.03,0-.05.02-.08.03-.16.05-.32.08-.49.08s-.34-.03-.49-.08c-.03,0-.06-.02-.08-.03-.15-.06-.3-.13-.43-.23,0,0-.02-.01-.02-.02-.27-.21-.48-.5-.59-.84-.05-.16-.08-.32-.08-.5s.03-.34.08-.5c.11-.34.31-.63.59-.84,0,0,.01-.01.02-.02.13-.1.27-.17.43-.23.03,0,.05-.02.08-.03.16-.05.32-.08.49-.08s.34.03.49.08c.03,0,.06.02.08.03.15.06.3.13.43.23,0,0,.01.01.02.02.27.21.48.5.59.84h0c.05.16.08.32.08.5Z"/>
      <path  d="M3.38,2.2H.5c-.28,0-.5.22-.5.5s.22.5.5.5h2.88c-.03-.16-.05-.33-.05-.5s.02-.34.05-.5Z"/>
      <path  d="M22.5,2.2h-13.82c.03.16.05.33.05.5s-.02.34-.05.5h13.82c.28,0,.5-.22.5-.5s-.22-.5-.5-.5Z"/>
    </g>
    <path  d="M22.5,9.64h-2.81c-.02-.1-.05-.2-.08-.3-.02-.06-.03-.12-.06-.18-.03-.09-.08-.17-.12-.26-.03-.06-.06-.13-.1-.19-.05-.07-.1-.14-.15-.21-.05-.06-.09-.12-.15-.18-.06-.06-.11-.12-.17-.17-.06-.06-.13-.11-.2-.16-.06-.05-.12-.09-.19-.13-.08-.05-.16-.09-.25-.13-.06-.03-.12-.06-.19-.09-.1-.04-.21-.07-.31-.1-.06-.01-.11-.04-.17-.05-.17-.03-.34-.05-.51-.05s-.35.02-.51.05c-.06.01-.11.03-.17.05-.11.03-.21.06-.31.1-.07.03-.13.06-.19.09-.08.04-.17.08-.25.13-.06.04-.13.09-.19.13-.07.05-.13.1-.2.16-.06.06-.12.11-.17.17-.05.06-.1.12-.15.18-.05.07-.11.14-.15.21-.04.06-.07.12-.1.19-.04.08-.09.17-.12.26-.02.06-.04.12-.06.18-.03.1-.06.2-.08.3H.5c-.28,0-.5.22-.5.5s.22.5.5.5h13.9c.02.1.05.2.08.3.02.06.03.12.06.18.03.09.08.17.12.26.03.06.06.13.1.19.05.07.1.14.15.21.05.06.09.12.15.18.06.06.11.12.17.17.06.06.13.11.19.16.06.05.12.09.19.13.08.05.16.09.25.13.06.03.12.06.19.09.1.04.21.07.31.1.06.01.11.04.17.05.17.03.34.05.51.05s.35-.02.51-.05c.06-.01.11-.03.17-.05.11-.03.21-.06.31-.1.07-.03.13-.06.19-.09.08-.04.17-.08.25-.13.06-.04.13-.09.19-.13.07-.05.13-.1.19-.16.06-.06.12-.11.17-.17.05-.06.1-.12.15-.18.05-.07.11-.14.15-.21.04-.06.07-.12.1-.19.04-.08.09-.17.12-.26.02-.06.04-.12.06-.18.03-.1.06-.2.08-.3h2.81c.28,0,.5-.22.5-.5s-.22-.5-.5-.5ZM18.66,10.64c-.11.34-.31.63-.59.84,0,0-.01.01-.02.02-.13.1-.27.17-.43.23-.03,0-.05.02-.08.03-.16.05-.32.08-.49.08s-.34-.03-.49-.08c-.03,0-.06-.02-.08-.03-.15-.06-.3-.13-.43-.23,0,0-.02-.01-.02-.02-.27-.21-.48-.5-.59-.84-.05-.16-.08-.32-.08-.5s.03-.34.08-.5c.11-.34.31-.63.59-.84,0,0,.01-.01.02-.02.13-.1.27-.17.43-.23.03,0,.05-.02.08-.03.16-.05.32-.08.49-.08s.34.03.49.08c.03,0,.06.02.08.03.15.06.3.13.43.23,0,0,.01.01.02.02.27.21.48.5.59.84.05.16.08.32.08.5s-.03.34-.08.5Z"/>
    <path  d="M22.5,17.08h-10.59c-.02-.1-.05-.2-.08-.3-.02-.06-.03-.12-.06-.18-.03-.09-.08-.17-.12-.26-.03-.06-.06-.13-.1-.19-.05-.07-.1-.14-.15-.21-.05-.06-.09-.12-.15-.18-.06-.06-.11-.12-.17-.17-.06-.06-.13-.11-.2-.16-.06-.05-.12-.09-.19-.13-.08-.05-.16-.09-.25-.13-.06-.03-.12-.06-.19-.09-.1-.04-.21-.07-.31-.1-.06-.01-.11-.04-.17-.05-.17-.03-.34-.05-.51-.05s-.35.02-.51.05c-.06.01-.11.03-.17.05-.11.03-.21.06-.31.1-.07.03-.13.06-.19.09-.08.04-.17.08-.25.13-.06.04-.13.09-.19.13-.07.05-.13.1-.2.16-.06.06-.12.11-.17.17-.05.06-.1.12-.15.18-.05.07-.11.14-.15.21-.04.06-.07.12-.1.19-.04.08-.09.17-.12.26-.02.06-.04.12-.06.18-.03.1-.06.2-.08.3H.5c-.28,0-.5.22-.5.5s.22.5.5.5h6.12c.02.1.05.2.08.3.02.06.03.12.06.18.03.09.08.17.12.26.03.06.06.13.1.19.05.07.1.14.15.21.05.06.09.12.15.18.06.06.11.12.17.17.06.06.13.11.19.16.06.05.12.09.19.13.08.05.16.09.25.13.06.03.12.06.19.09.1.04.21.07.31.1.06.01.11.04.17.05.17.03.34.05.51.05s.35-.02.51-.05c.06-.01.11-.03.17-.05.11-.03.21-.06.31-.1.07-.03.13-.06.19-.09.08-.04.17-.08.25-.13.06-.04.13-.09.19-.13.07-.05.13-.1.19-.16.06-.06.12-.11.17-.17.05-.06.1-.12.15-.18.05-.07.11-.14.15-.21.04-.06.07-.12.1-.19.04-.08.09-.17.12-.26.02-.06.04-.12.06-.18.03-.1.06-.2.08-.3h10.59c.28,0,.5-.22.5-.5s-.22-.5-.5-.5ZM10.88,18.08c-.11.34-.31.63-.59.84,0,0-.01.01-.02.02-.13.1-.27.17-.43.23-.03,0-.05.02-.08.03-.16.05-.32.08-.49.08s-.34-.03-.49-.08c-.03,0-.06-.02-.08-.03-.15-.06-.3-.13-.43-.23,0,0-.02-.01-.02-.02-.27-.21-.48-.5-.59-.84-.05-.16-.08-.32-.08-.5s.03-.34.08-.5c.11-.34.31-.63.59-.84,0,0,.01-.01.02-.02.13-.1.27-.17.43-.23.03,0,.05-.02.08-.03.16-.05.32-.08.49-.08s.34.03.49.08c.03,0,.06.02.08.03.15.06.3.13.43.23,0,0,.01.01.02.02.27.21.48.5.59.84.05.16.08.32.08.5s-.03.34-.08.5Z"/>
  </g>
</svg>