<?xml version="1.0" encoding="UTF-8"?>
<svg id="_레이어_2" data-name="레이어_2" xmlns="http://www.w3.org/2000/svg" viewBox="0 0 21.05 21.86">
 
  <g id="_레이어_1-2" data-name="레이어_1">
    <g>
      <path d="M10.52,11.32c-3.12,0-5.66-2.54-5.66-5.66S7.4,0,10.52,0s5.66,2.54,5.66,5.66-2.54,5.66-5.66,5.66ZM10.52,1c-2.57,0-4.66,2.09-4.66,4.66s2.09,4.66,4.66,4.66,4.66-2.09,4.66-4.66S13.09,1,10.52,1Z"/>
      <path d="M20.55,21.86H.5c-.28,0-.5-.22-.5-.5v-1.01c0-3.49,2.84-6.33,6.33-6.33h8.39c3.49,0,6.33,2.84,6.33,6.33v1.01c0,.28-.22.5-.5.5ZM1,20.86h19.05v-.51c0-2.94-2.39-5.33-5.33-5.33H6.33c-2.94,0-5.33,2.39-5.33,5.33v.51Z"/>
    </g>
  </g>
</svg>