<?xml version="1.0" encoding="UTF-8"?>
<svg id="_레이어_2" data-name="레이어_2" xmlns="http://www.w3.org/2000/svg" viewBox="0 0 22.05 22.86">
 
  <g id="_레이어_1-2" data-name="레이어_1">
    <g>
      <path  d="M11.02,12.32c-3.4,0-6.16-2.76-6.16-6.16S7.63,0,11.02,0s6.16,2.76,6.16,6.16-2.76,6.16-6.16,6.16ZM11.02,2c-2.29,0-4.16,1.87-4.16,4.16s1.87,4.16,4.16,4.16,4.16-1.87,4.16-4.16-1.87-4.16-4.16-4.16Z"/>
      <path  d="M21.05,22.86H1c-.55,0-1-.45-1-1v-1.01c0-3.76,3.06-6.83,6.83-6.83h8.39c3.76,0,6.83,3.06,6.83,6.83v1.01c0,.55-.45,1-1,1ZM2,20.86h18.05c0-2.68-2.17-4.84-4.83-4.84H6.83c-2.66,0-4.83,2.17-4.83,4.83h0Z"/>
    </g>
  </g>
</svg>