<?xml version="1.0" encoding="UTF-8"?>
<svg id="_레이어_2" data-name="레이어_2" xmlns="http://www.w3.org/2000/svg" viewBox="0 0 17 19.24">
 
  <g id="_레이어_1-2" data-name="레이어_1">
    <path d="M1.51,19.24c-.17,0-.35-.03-.52-.09-.6-.22-.99-.77-.99-1.41V2.5C0,1.12,1.12,0,2.5,0h12c1.38,0,2.5,1.12,2.5,2.5v15.24c0,.64-.39,1.19-.99,1.41-.6.22-1.25.04-1.66-.45l-5.46-6.55c-.13-.16-.3-.18-.38-.18s-.25.02-.38.18l-5.46,6.55c-.29.35-.71.54-1.14.54ZM2.5,1c-.83,0-1.5.67-1.5,1.5v15.24c0,.33.25.44.33.47.08.03.35.1.55-.15l5.46-6.55c.57-.69,1.73-.69,2.3,0l5.46,6.55c.21.25.48.18.55.15.08-.03.33-.14.33-.47V2.5c0-.83-.67-1.5-1.5-1.5H2.5Z"/>
  </g>
</svg>