<?xml version="1.0" encoding="UTF-8"?>
<svg id="_레이어_2" data-name="레이어_2" xmlns="http://www.w3.org/2000/svg" viewBox="0 0 19.66 17.3">
  <defs>
    <style>
      .cls-1 {
        fill: #f2f2f2;
      }
    </style>
  </defs>
  <g id="_레이어_1-2" data-name="레이어_1">
    <path class="cls-1" d="M19.58,4.51c-.37-2.19-2.16-4.01-4.34-4.41-2.1-.39-4.18.44-5.41,2.09C8.59.54,6.51-.3,4.42.1,2.24.5.45,2.32.08,4.51c-.29,1.7.21,3.38,1.36,4.63.02.03.04.06.07.08l7.97,7.92c.1.1.23.15.35.15s.25-.05.35-.15l7.97-7.92s.05-.05.07-.08c1.15-1.25,1.65-2.94,1.36-4.63Z"/>
  </g>
</svg>