<?xml version="1.0" encoding="UTF-8"?>
<svg id="_레이어_2" data-name="레이어_2" xmlns="http://www.w3.org/2000/svg" viewBox="0 0 14.47 14.47">
  <g id="_레이어_1-2" data-name="레이어_1">
    <g>
      <path d="M1.82,10.45c1.52,1.52,4.68.84,7.05-1.53,2.37-2.37,3.05-5.52,1.53-7.05-.95-.95-2.52-1.04-4.15-.41,2.12-1.08,4.27-1.18,5.63-.14-.09-.11-.17-.22-.27-.32C9.73-.88,5.83-.03,2.9,2.9-.03,5.83-.88,9.73,1,11.61c.1.1.21.19.32.27-.99-1.3-.93-3.33,0-5.35-.54,1.54-.41,3.02.49,3.92Z"/>
      <path d="M13.4,2.09c-.21-.21-.44-.38-.69-.52,1.27,2.17.26,5.8-2.54,8.6s-6.43,3.81-8.6,2.54c.15.25.31.48.52.69,2.01,2.01,6.17,1.1,9.29-2.02s4.03-7.29,2.02-9.29Z"/>
    </g>
  </g>
</svg>