<?xml version="1.0" encoding="UTF-8"?>
<svg id="_레이어_2" data-name="레이어_2" xmlns="http://www.w3.org/2000/svg" viewBox="0 0 22.87 13.58">
  <defs>
    <style>
      .cls-1 {
        fill: #fff;
      }
    </style>
  </defs>
  <g id="_레이어_1-2" data-name="레이어_1">
    <path class="cls-1" d="M22.37,6.41H1.59L7.15.85c.2-.2.2-.51,0-.71s-.51-.2-.71,0L.15,6.44c-.09.09-.15.22-.15.35,0,.02,0,.04.01.06,0,.02-.01.04-.01.06,0,.24.17.42.39.48l6.04,6.04c.1.1.23.15.35.15s.26-.05.35-.15c.2-.2.2-.51,0-.71L1.82,7.41h20.55c.28,0,.5-.22.5-.5s-.22-.5-.5-.5Z"/>
  </g>
</svg>