<?xml version="1.0" encoding="UTF-8"?>
<svg id="_레이어_2" data-name="레이어_2" xmlns="http://www.w3.org/2000/svg" viewBox="0 0 17 19.24">
  <defs>
    <style>
      .cls-1 {
        fill: #f2f2f2;
      }
    </style>
  </defs>
  <g id="_레이어_1-2" data-name="레이어_1">
    <path class="cls-1" d="M14.5,0H2.5C1.12,0,0,1.12,0,2.5v15.24c0,.64.39,1.19.99,1.41.6.22,1.25.04,1.66-.45l5.46-6.55c.13-.16.3-.18.38-.18s.25.02.38.18l5.46,6.55c.29.35.71.54,1.14.54.17,0,.35-.03.52-.09.6-.22.99-.77.99-1.41V2.5c0-1.38-1.12-2.5-2.5-2.5Z"/>
  </g>
</svg>