<?xml version="1.0" encoding="UTF-8"?>
<svg  xmlns="http://www.w3.org/2000/svg" viewBox="0 0 149.45 24">
  <g>
    <g>
      <g>
        <circle cx="148.05" cy="22.6" r="1.4"/>
        <path d="M141.76,23.3h-25.16c-.39,0-.7-.31-.7-.7s.31-.7.7-.7h25.16c.39,0,.7.31.7.7s-.31.7-.7.7Z"/>
      </g>
      <g>
        <path d="M2.13,24c-.29,0-.51-.08-.65-.24s-.22-.38-.25-.65L0,.8C-.01.53.02.33.11.2c.09-.13.28-.2.56-.2.36,0,.59.08.69.22.1.15.15.31.15.48l1.02,20.49L12.38.78c.06-.12.17-.28.34-.48.17-.2.37-.3.62-.3.38,0,.62.08.74.23.12.15.19.32.21.49l1.04,20.36L25.15.81c.15-.28.3-.49.46-.62.16-.13.35-.19.58-.19.21,0,.37.03.5.1s.2.17.22.31c.02.14-.02.31-.12.53l-10.97,22.21c-.13.29-.27.51-.42.64-.15.14-.32.21-.52.21-.29,0-.49-.04-.6-.12-.11-.08-.18-.23-.19-.44l-1.05-20.88L3.09,23.11c-.09.21-.2.41-.35.6-.15.19-.35.29-.61.29Z"/>
        <path d="M27.35,23.94c-.29,0-.49-.07-.59-.21-.1-.14-.13-.33-.09-.59L30.6.91c.04-.28.12-.49.24-.64s.36-.21.71-.21h12.02c.33,0,.54.07.64.21.1.14.15.31.15.51s-.05.36-.15.46c-.1.1-.31.15-.65.15h-11.51l-1.59,8.99h9.82c.33,0,.54.06.64.19s.15.3.15.51c0,.2-.05.36-.15.48s-.32.19-.64.19h-10.05l-1.9,10.82h11.56c.33,0,.55.05.66.14s.15.23.15.42c0,.2-.06.39-.17.56-.11.17-.33.25-.64.25h-12.55Z"/>
        <path d="M45,23.94c-.28,0-.48-.07-.6-.21-.12-.14-.16-.34-.12-.59L48.21.93c.05-.29.14-.51.26-.65s.35-.21.69-.21c2.67,0,4.96.21,6.86.63,1.9.42,3.32,1.07,4.27,1.95.95.88,1.33,2.01,1.14,3.4-.16,1.23-.61,2.23-1.35,2.98-.74.75-1.71,1.32-2.91,1.71-1.2.39-2.6.65-4.18.79-1.58.14-3.3.21-5.15.23l-2,11.39c-.03.19-.1.37-.19.54-.09.17-.31.26-.65.26ZM48.07,10.37c1.54-.02,3-.09,4.38-.21s2.61-.34,3.69-.66c1.08-.32,1.96-.76,2.63-1.34.67-.58,1.06-1.33,1.17-2.26.09-.69-.05-1.3-.4-1.85-.35-.54-.94-1.01-1.77-1.4-.83-.39-1.91-.69-3.25-.91s-2.96-.33-4.85-.36l-1.59,8.99Z"/>
        <path d="M62.63,23.94c-.28,0-.48-.07-.58-.21-.1-.14-.14-.34-.1-.59l3.93-22.21c.04-.28.13-.5.27-.64s.36-.22.68-.22.49.08.56.24c.06.16.07.4,0,.73l-3.79,21.55h11.65c.31,0,.52.05.63.14.11.1.17.23.17.41,0,.2-.06.39-.18.56-.12.17-.33.25-.62.25h-12.62Z"/>
        <path d="M77.02,24c-.16,0-.3-.03-.42-.1-.12-.07-.19-.17-.21-.32s.02-.32.14-.52L88.1.82c.15-.28.26-.49.34-.62.08-.13.29-.2.62-.2.27,0,.46.05.57.14s.17.23.17.4l1.92,22.68c.03.25,0,.44-.1.58-.09.14-.28.21-.57.21-.33,0-.55-.08-.64-.24s-.14-.33-.16-.52l-.91-11.49h-5.4l-5.82,11.4c-.17.34-.32.57-.44.68-.12.11-.34.17-.67.17ZM84.65,10.37h4.59l-.4-4.94V1.75l-1.54,3.45-2.65,5.18Z"/>
        <path d="M96.39,23.94c-.27,0-.47-.07-.58-.21-.12-.14-.16-.34-.12-.59l3.93-22.21c.05-.29.13-.51.25-.65.12-.14.34-.21.68-.21.29,0,.52.07.68.2.16.13.27.28.32.44l7.21,20.02,3.54-19.81c.04-.27.13-.48.26-.63.13-.15.35-.22.66-.22.29,0,.47.08.54.23.07.15.07.39,0,.72l-3.91,22.12c-.03.19-.09.37-.16.54-.07.17-.27.26-.58.26-.23,0-.41-.05-.55-.16-.13-.11-.23-.24-.29-.39l-7.49-20.35-3.51,20.02c-.03.21-.1.42-.2.6s-.32.28-.67.28Z"/>
      </g>
    </g>
  </g>
</svg>